# xmcd
#
# Track frame offsets:
#	150
#	8768
#	20545
#	40120
#	63525
#	80245
#	91648
#	111820
#	122318
#	133945
#
# Disc length: 2436 seconds
#
# Revision: 3
# Processed by: cddbd v1.5.1PL0 Copyright (c) Steve Scherf et al.
# Submitted via: MusicWizard 7.0.2
#
DISCID=7809820a
DTITLE=Charlie Musselwhite - Stone Blues
DYEAR=1968
DGENRE=Blues
TTITLE0=My Buddy Buddy Friends
TTITLE1=Everything's Gonna Be Allright
TTITLE2=My Baby's Sweeter
TTITLE3=Clay's Tune
TTITLE4=Gone And Left Me
TTITLE5=Cry For Me Baby
TTITLE6=Hey Baby
TTITLE7=Juke
TTITLE8=She Belongs To Me
TTITLE9=Bag Gloom Brews
EXTD=
EXTT0=
EXTT1=
EXTT2=
EXTT3=
EXTT4=
EXTT5=
EXTT6=
EXTT7=
EXTT8=
EXTT9=
PLAYORDER=
